<svg xmlns="http://www.w3.org/2000/svg" viewBox="0 0 384.5 212.4">
  <g id="Layer_2" data-name="Layer 2">
    <g id="Layer_1-2" data-name="Layer 1">
      <g>
        <path d="M53.7,110.9V73c0-11-6-19.3-17.4-19.3S17.8,62.9,17.8,73.9v37H0V38.4H16l1.2,9.8C24.5,41,31.9,37.4,41,37.4c17,0,30.6,12.7,30.6,35.5v38Z" fill="#fff"/>
        <path d="M97.9,38.5V76.4c0,11,6.1,19.4,17.5,19.4s18.5-9.3,18.5-20.3v-37h17.8v72.6h-16l-1.2-9.9c-7.5,7.4-14.4,10.9-24.5,10.9-17.3,0-30-13.1-30-35.5V38.5Z" fill="#fff"/>
        <path d="M188.2,18.1V38.7h20V54.1H188.1V85.4c0,6.9,3.8,10.2,9.4,10.2a18.9,18.9,0,0,0,8.6-2.2l5,15.3a40,40,0,0,1-14.8,3.1c-15.7.6-26-8.4-26-26.4V54.1H156.8V38.7h13.5V20Z" fill="#fff"/>
        <path d="M264.3,57.8c-5.1-4.9-11-6.5-17.9-6.5-8.5,0-13.2,2.7-13.2,7.2s4.2,7.3,13.5,7.9c13.6.9,31,4,31,23.2,0,12.8-10.5,23.8-31.2,23.8-11.4,0-22.9-1.9-33.4-12.9l8.8-12.8c5.1,5.7,16.9,10,24.9,10.1s13.1-3.3,13.1-8.6-4.1-7.1-14.4-7.7c-13.6-1-29.9-6-29.9-22.4s17.3-22.6,30.5-22.6c11.3,0,19.8,2.2,28.2,9.5Z" fill="#fff"/>
        <path d="M49.4,126.2H63.3v58.3H49.7L49,176c-3.4,6.8-12.5,10.1-19,10.3-17.2.1-30-10.6-30-31s13.4-30.6,30.4-30.5c7.8,0,15.2,3.6,18.6,9.4Zm-35,29.1c0,11.1,7.7,17.7,17.3,17.7,22.7,0,22.7-35.3,0-35.3-9.6,0-17.3,6.5-17.3,17.6" fill="#fff"/>
        <path d="M88.8,126.2l1.1,6.7c4.5-7.2,10.5-8.2,16.4-8.2s11.8,2.3,15,5.5l-6.5,12.6a14.3,14.3,0,0,0-10.4-3.8c-7.6,0-14.5,4-14.5,14.7v30.8H75.4V126.2Z" fill="#fff"/>
        <path d="M173,126.2h13.8v58.3H173.2l-.7-8.5c-3.3,6.8-12.4,10.1-18.9,10.3-17.3.1-30-10.6-30-31s13.3-30.6,30.4-30.5c7.8,0,15.2,3.6,18.5,9.4Zm-35,29.1c0,11.1,7.7,17.7,17.3,17.7,22.7,0,22.7-35.3,0-35.3-9.6,0-17.3,6.5-17.3,17.6" fill="#fff"/>
        <path d="M287.5,122.4c0,11.3-17.1,11.3-17.1,0s17.1-11.2,17.1,0m-15.8,62.1h14.5V132.6H271.7Z" fill="#fff"/>
        <path d="M345.4,126.2h13.8v58.3H345.6l-.7-8.5c-3.3,6.8-12.4,10.1-18.9,10.3-17.3.1-30-10.6-30-31s13.3-30.6,30.4-30.5c7.8,0,15.2,3.6,18.5,9.4Zm-35,29.1c0,11.1,7.7,17.7,17.3,17.7,22.7,0,22.7-35.3,0-35.3-9.6,0-17.3,6.5-17.3,17.6" fill="#fff"/>
        <path d="M231.4,124.8c-6.1,0-15.7,3.3-19.2,9.3V113.9H197.8v70.6h13.5l.9-8c4.5,6.9,11.8,9.3,18.9,9.3,17.1,0,30-11.4,30-30.5s-12.7-30.5-29.7-30.5m-1.3,47.6c-9.1,0-16.9-6.6-16.9-17.1a16.6,16.6,0,0,1,16.9-17c9.2,0,16.6,6.5,16.6,17s-7.4,17.1-16.6,17.1" fill="#fff"/>
        <path d="M135.6,207.7c0,.2-.1.3-.2.5s-.1.2-.2.3h-2.7l-.4-.2-.3-.5-.3-.8-2-5.9-.5-1.4-.3-1.4h-.1a7.8,7.8,0,0,1-.2,1.6l-.3,1.6-1.4,6.7v.2h-2.4v-.2l2.5-11.8c.1-.3.2-.6.5-.7a1.1,1.1,0,0,1,.7-.3h2.1l.4.2a1,1,0,0,1,.4.5l.2.6,2.1,6,.3,1.1c.1.4.3.7.4,1.1h0l.3-1.5.3-1.5,1.3-6.2c0-.1,0-.2.1-.2h2.4v.2Z" fill="#e6e7e8"/>
        <path d="M148.9,202.3a7.7,7.7,0,0,1-.2,1.5,8.3,8.3,0,0,1-.4,1.5,6.4,6.4,0,0,1-.8,1.4l-1.2,1.2a6.9,6.9,0,0,1-1.5.7,6.4,6.4,0,0,1-2,.3l-1.9-.2-1.3-.7a3.6,3.6,0,0,1-.8-1.2,6.1,6.1,0,0,1-.2-1.5,7.6,7.6,0,0,1,.1-1.5,8.8,8.8,0,0,1,.5-1.5,3.9,3.9,0,0,1,.8-1.4,6.3,6.3,0,0,1,1.1-1.2l1.6-.7a6,6,0,0,1,2-.3l1.8.2a4,4,0,0,1,1.3.7,2.5,2.5,0,0,1,.8,1.2,3.3,3.3,0,0,1,.3,1.5m-2.8.2a1.9,1.9,0,0,0-.1-.8l-.3-.5a1,1,0,0,0-.5-.4h-.8l-1,.2-.8.5a3.5,3.5,0,0,0-.5.8,3.6,3.6,0,0,0-.4.9,5.4,5.4,0,0,0-.3,1c0,.4-.1.7-.1,1s.1.5.1.8l.3.5.6.4h.8l.9-.2.8-.5.6-.8a10.4,10.4,0,0,0,.4-1,3,3,0,0,0,.2-1,2.8,2.8,0,0,0,.1-.9" fill="#e6e7e8"/>
        <path d="M157.4,199.4v.2c-.1.1-.1.2-.1.4s-.1.2-.1.3v.3l-.2.3h-2.3l-.9,4.3v.7a1.4,1.4,0,0,0,.2.6h1.9c.1,0,.1.1.1.2v.5c-.1.1-.1.3-.2.4s-.1.3-.1.5l-.2.2c-.1.1-.1.2-.3.2l-.4.2h-2.3l-.8-.4a1.5,1.5,0,0,1-.5-.7,3.6,3.6,0,0,1-.2-1.1V206a.4.4,0,0,0,.1-.3.4.4,0,0,1,.1-.3l.9-4.4h-1.4v-.8a4.3,4.3,0,0,1,.1-.5l.3-.5.3-.2h1.1l.5-2v-.2h2.5c0,.1.1.1,0,.2l-.4,2h2.3c.1.1.1.2.1.4" fill="#e6e7e8"/>
        <path d="M166.4,208.3v.2h-2.6v-.2l1.1-5.4a.9.9,0,0,0,.1-.5v-.9l-.2-.3-.2-.2h-.4l-1,.3a1.8,1.8,0,0,0-.8.7,3.1,3.1,0,0,0-.8,1.1,6.1,6.1,0,0,0-.5,1.2l-.8,4.1v.2h-2.6v-.2l2.8-13.3c0-.1,0-.2.1-.2s.1-.1.2-.2h2.2c.1.1.1.1.1.2s.1.1.1.2l-.8,3.6c0,.2-.1.3-.1.5s-.1.4-.2.5-.1.3-.1.5l-.2.4.6-.6.8-.6,1-.5h1.1a2.3,2.3,0,0,1,1.2.2l.8.5a2.2,2.2,0,0,1,.5.8,4.1,4.1,0,0,1,.1,1.1v.7a2,2,0,0,0-.1.7Z" fill="#e6e7e8"/>
        <path d="M171.7,208.3c0,.1,0,.2-.1.2H169v-.2l1.9-9c0-.1.1-.1.1-.2h2.6v.2Zm2.8-12.1a3.9,3.9,0,0,0-.2.6,1,1,0,0,1-.4.5l-.5.2h-1.5l-.4-.2a.8.8,0,0,1-.2-.5,1.8,1.8,0,0,1,.1-.6,1.4,1.4,0,0,1,.2-.6c0-.2.2-.3.3-.4l.5-.3h1.5l.5.3c.1.1.1.2.1.4v.6" fill="#e6e7e8"/>
        <path d="M184.6,201.3v.7c0,.2-.1.5-.1.7l-1.2,5.6v.2h-2.6v-.2l1.2-5.4v-.5a.9.9,0,0,0,.1-.5,1.4,1.4,0,0,0-.2-.7.9.9,0,0,0-.7-.3l-.9.3a1.6,1.6,0,0,0-.9.7,3.9,3.9,0,0,0-.8,1,6.9,6.9,0,0,0-.5,1.3l-.8,4.1v.2h-2.6v-.2l1.9-9.1h.1l.2-.2h1.8l.2.2h0l-.3,1.5.6-.7a2.4,2.4,0,0,1,.8-.6l1.1-.5a2.5,2.5,0,0,1,1.2-.2,2.2,2.2,0,0,1,1.2.2,1.8,1.8,0,0,1,.9.6,2,2,0,0,1,.4.8,3.1,3.1,0,0,1,.1,1" fill="#e6e7e8"/>
        <path d="M194.7,208.7a3.8,3.8,0,0,1-.6,1.6,3.2,3.2,0,0,1-1.1,1.2,4.8,4.8,0,0,1-1.6.7l-2.2.2h-1.6l-1.2-.4a.2.2,0,0,1-.2-.2c-.1,0-.1-.1-.1-.3v-.5a.4.4,0,0,0,.1-.3l.2-.4V210h.6l.5.2h2.9l.7-.3a1.2,1.2,0,0,0,.5-.5.9.9,0,0,0,.3-.7l.3-1.1.3-.7-.6.6a1.6,1.6,0,0,1-.8.6l-1,.5h-1.1l-1.4-.2-.9-.8a3.7,3.7,0,0,1-.5-1.1,5.7,5.7,0,0,1-.1-1.3,7.6,7.6,0,0,1,.1-1.5,8.3,8.3,0,0,1,.4-1.5,6.1,6.1,0,0,1,.7-1.4,6.4,6.4,0,0,1,1-1.3,5.7,5.7,0,0,1,1.3-.8,4.7,4.7,0,0,1,1.7-.3,4.1,4.1,0,0,1,1.6.3,6,6,0,0,1,1.2,1.1l.2-.9.3-.3h1.8l.2.2h0Zm-1.2-6.7-.9-.9a1.7,1.7,0,0,0-1-.3,1.1,1.1,0,0,0-.8.3,1.8,1.8,0,0,0-.7.5,2.2,2.2,0,0,0-.5.8,3.6,3.6,0,0,0-.4.9c-.1.3-.1.7-.2,1s-.1.6-.1.9.1.5.1.7l.2.4.3.3h.6a1.5,1.5,0,0,0,.9-.2,3.2,3.2,0,0,0,.9-.8,3.9,3.9,0,0,0,.8-1,7.8,7.8,0,0,0,.5-1.4Z" fill="#e6e7e8"/>
        <path d="M205.1,208.3c0,.1,0,.2-.1.2h-2.5c-.1,0-.1-.1-.1-.2l2.8-13.3v-.2l.3-.2h2.1c.1.1.2.1.2.2v.2Z" fill="#e6e7e8"/>
        <path d="M210.5,208.3v.2h-2.6v-.2l1.9-9c0-.1.1-.1.1-.2h2.6v.2Zm2.8-12.1-.3.6a.9.9,0,0,1-.3.5l-.5.2h-1.5l-.4-.2a.8.8,0,0,1-.2-.5,1.8,1.8,0,0,1,.1-.6,1.4,1.4,0,0,1,.2-.6c0-.2.2-.3.3-.4l.5-.3h1.5l.4.3a.5.5,0,0,1,.2.4v.6" fill="#e6e7e8"/>
        <path d="M223.6,199.2a.6.6,0,0,1-.1.4l-.5.6-3.4,3,2.2,4.4c.1.1.1.3.2.4v.5h-2.5l-.2-.2v-.2l-2.2-4.8-1,4.8v.2h-2.6v-.2L216,195c0-.1,0-.2.1-.2s.1-.1.2-.2h2.2c.1.1.1.1.1.2s.1.1.1.2l-1.7,7.9,3.6-3.6a.2.2,0,0,1,.2-.2l.3-.2h2.2l.2.2h.1" fill="#e6e7e8"/>
        <path d="M233,201.3a3.1,3.1,0,0,1-.3,1.3,3.6,3.6,0,0,1-1.1,1,4.7,4.7,0,0,1-1.9.6,10.6,10.6,0,0,1-2.7.2h-1v.9a1.7,1.7,0,0,0,.4,1.3,2,2,0,0,0,1.4.4h1.3l1-.2.7-.2h.6v.7a.6.6,0,0,1-.1.4c0,.2-.1.3-.1.4l-.2.3-.5.3-.8.2-1.1.2h-1.2l-1.8-.2a2.6,2.6,0,0,1-1.3-.6,3.1,3.1,0,0,1-.8-1.1,6.1,6.1,0,0,1-.2-1.5,8.1,8.1,0,0,1,.1-1.5,8.3,8.3,0,0,1,.4-1.5,6.4,6.4,0,0,1,.8-1.4,6.9,6.9,0,0,1,1.1-1.3,8,8,0,0,1,1.6-.8,6,6,0,0,1,2-.3l1.7.2a2.4,2.4,0,0,1,1.1.6,2.7,2.7,0,0,1,.7.8,3,3,0,0,1,.2,1m-2.6.1c0-.2-.2-.4-.4-.6a1.3,1.3,0,0,0-1-.3l-.9.2-.8.5a1.8,1.8,0,0,0-.5.7,3.6,3.6,0,0,0-.4.9h2.4l.9-.3.5-.4a1.4,1.4,0,0,0,.2-.6" fill="#e6e7e8"/>
        <path d="M247.6,208.3c0,.1,0,.2-.1.2h-2.1c-.1,0-.1-.1,0-.2l.2-1.4-.5.7a4.7,4.7,0,0,1-.9.6,2.2,2.2,0,0,1-1.1.5,2,2,0,0,1-1.1.2,2.7,2.7,0,0,1-1.3-.2l-.8-.5a2.2,2.2,0,0,1-.5-.8,4.1,4.1,0,0,1-.1-1.1v-.7a1.7,1.7,0,0,0,.1-.7l1.2-5.7h.1l.3-.2h2.1l.2.2h0l-1.1,5.5a.9.9,0,0,0-.1.5v.9l.2.3.2.2h.4l1-.3a2.8,2.8,0,0,0,.9-.7l.7-1.1a7.8,7.8,0,0,0,.5-1.4l.8-4h.1l.3-.2h2.1l.2.2h0Z" fill="#e6e7e8"/>
        <path d="M258.2,199.7a.5.5,0,0,1-.1.3.9.9,0,0,1-.1.5.5.5,0,0,1-.2.4l-.2.2h-.3l-.5-.2-.6-.2h-1.5l-.5.2-.3.4a.7.7,0,0,0-.1.5c0,.2.1.3.3.5l.7.4.8.4a2.6,2.6,0,0,1,.9.5,2.3,2.3,0,0,1,.7.7,2,2,0,0,1,.3,1.1,2.6,2.6,0,0,1-.4,1.5,3.1,3.1,0,0,1-.9,1.1,2.6,2.6,0,0,1-1.4.7,5.8,5.8,0,0,1-1.9.3h-1.8l-.7-.3-.3-.2-.2-.2v-.4a.8.8,0,0,1,.1-.4,12362528204811.4,12362528204811.4,0,0,0,.2-.6v-.3h.5l.5.3.7.2,1,.2h.8l.5-.3.4-.4c0-.2.1-.3.1-.5a.9.9,0,0,0-.3-.6l-.7-.4-.8-.4-.9-.5c-.2-.2-.5-.4-.6-.7a2,2,0,0,1-.3-1.1,3.5,3.5,0,0,1,.3-1.4,3.9,3.9,0,0,1,.8-1,4.7,4.7,0,0,1,1.4-.8l1.8-.2h.8l.8.2.6.2c.2.1.3.1.3.2a.5.5,0,0,1,.2.4" fill="#e6e7e8"/>
        <path d="M262.5,206.4a5.2,5.2,0,0,1-1.3,2.9l-1.9,2-.5.3h-1.6a.4.4,0,0,1,.1-.3l1.9-2.8.3-1.5c.1-.2.1-.4.2-.6l.3-.3h2.2l.2.2v.3" fill="#e6e7e8"/>
        <path d="M272.2,208.3c0,.1,0,.2-.1.2h-2.6v-.2l1.9-9c0-.1.1-.1.1-.2h2.6v.2Zm2.8-12.1a3.9,3.9,0,0,0-.2.6,1,1,0,0,1-.4.5l-.5.2h-1.5l-.4-.2a.8.8,0,0,1-.2-.5,1.8,1.8,0,0,1,.1-.6,1.4,1.4,0,0,1,.2-.6l.3-.4.5-.3h1.5l.5.3c.1.1.1.2.1.4v.6" fill="#e6e7e8"/>
        <path d="M285.1,201.3v.7c0,.2-.1.5-.1.7l-1.2,5.6v.2h-2.6v-.2l1.2-5.4v-.5a.9.9,0,0,0,.1-.5,1.4,1.4,0,0,0-.2-.7.9.9,0,0,0-.7-.3l-.9.3a2.8,2.8,0,0,0-.9.7,3.9,3.9,0,0,0-.8,1,6.9,6.9,0,0,0-.5,1.3l-.8,4.1v.2h-2.6v-.2l1.9-9.1h.1l.2-.2h1.8l.2.2h0l-.3,1.5.6-.7a2.4,2.4,0,0,1,.8-.6l1.1-.5a2.5,2.5,0,0,1,1.2-.2,2.2,2.2,0,0,1,1.2.2,1.8,1.8,0,0,1,.9.6,2,2,0,0,1,.4.8,3.1,3.1,0,0,1,.1,1" fill="#e6e7e8"/>
        <path d="M303,207.7v.6a.4.4,0,0,1-.1.3h-2.6a.4.4,0,0,1-.1-.3l-.4-2.6h-5.2l-1.4,2.6-.2.2-.3.2h-2.3c-.1-.1-.1-.2-.1-.4l.3-.5,6.7-11.7c.1-.1.2-.2.2-.3l.3-.2h3l.3.2c0,.1.1.2.1.3Zm-4.2-9.7h0l-3.1,5.6h3.9Z" fill="#e6e7e8"/>
        <path d="M312.6,199.1v.7a.9.9,0,0,0-.1.5l-.2.5a.8.8,0,0,1-.2.4h-.4c0-.1-.1-.1-.2-.1h-.6l-.7.2-.8.7a4.1,4.1,0,0,0-.7,1.1,3.4,3.4,0,0,0-.4,1.2l-.9,4c0,.1,0,.2-.1.2h-2.5c-.1,0-.1-.1,0-.2l1.9-9.1h0l.3-.2h1.8v.2h0l-.3,1.5.6-.8a1.9,1.9,0,0,1,.7-.6l.8-.5h1.9v.2" fill="#e6e7e8"/>
        <path d="M321.2,208.3c0,.2-.1.3-.3.4H319v-.2a.1.1,0,0,1,0-.2l.3-1.4-.5.7-.9.6-1,.5a2.5,2.5,0,0,1-1.2.2,3.3,3.3,0,0,1-1.5-.3,3.1,3.1,0,0,1-.9-.7,5.4,5.4,0,0,1-.5-1.1,6.2,6.2,0,0,1-.1-1.3,6.6,6.6,0,0,1,.1-1.4,9.4,9.4,0,0,1,.4-1.6,9.1,9.1,0,0,1,.7-1.4,4,4,0,0,1,1-1.2,3.8,3.8,0,0,1,1.3-.9,4.7,4.7,0,0,1,1.7-.3,3.8,3.8,0,0,1,1.6.3,3.2,3.2,0,0,1,1.2,1.1l.2-.9q0-.1.3-.3h1.8l.2.2h0Zm-1.3-6.3a3.6,3.6,0,0,0-.8-.9l-1.1-.2a1.1,1.1,0,0,0-.8.2,1.8,1.8,0,0,0-.7.5,5.6,5.6,0,0,0-.5.8l-.4.9c-.1.3-.1.7-.2,1v1.5c0,.2.1.3.2.5l.3.3h.6a1.5,1.5,0,0,0,.9-.2,2.5,2.5,0,0,0,1-.8,8.6,8.6,0,0,0,.7-1,5.8,5.8,0,0,0,.5-1.4Z" fill="#e6e7e8"/>
        <path d="M334.4,202.1a7.6,7.6,0,0,1-.1,1.5,8.3,8.3,0,0,1-.4,1.5,6.1,6.1,0,0,1-.7,1.4,6.4,6.4,0,0,1-1,1.3,5.7,5.7,0,0,1-1.3.8,4.7,4.7,0,0,1-1.7.3,4.1,4.1,0,0,1-1.6-.3,2.9,2.9,0,0,1-1.2-1l-.2.7a.3.3,0,0,1-.3.3h-1.8c-.2,0-.2-.1-.2-.3l2.8-13.3v-.2l.3-.2h2.1l.2.2v.2l-.8,3.6a.9.9,0,0,1-.1.5c0,.2-.1.3-.1.5l-.2.5c0,.2-.1.3-.1.4l.5-.6a1.6,1.6,0,0,1,.8-.6l1-.5h2.1l.8.4.6.6.3.8c.1.2.1.5.2.7v.8m-2.7.3a4664550796216,4664550796216,0,0,0-.2-1l-.4-.4h-.5a1.6,1.6,0,0,0-1,.2l-.9.8a3.1,3.1,0,0,0-.8,1.1,5,5,0,0,0-.5,1.3l-.3,1.4.9.8a1.6,1.6,0,0,0,1,.2h.8l.7-.6.5-.7a10.4,10.4,0,0,0,.4-1c.1-.3.1-.6.2-.9s.1-.7.1-1" fill="#e6e7e8"/>
        <path d="M338.1,208.3c0,.1,0,.2-.1.2h-2.5a.1.1,0,0,1,0-.2l1.8-9,.2-.2H340v.2Zm2.8-12.1c-.1.3-.1.5-.2.6l-.3.5-.6.2h-1.5l-.4-.2a.8.8,0,0,1-.2-.5,1.8,1.8,0,0,1,.1-.6,1.4,1.4,0,0,1,.2-.6l.3-.4.6-.3h1.5l.4.3.2.4c0,.2-.1.4-.1.6" fill="#e6e7e8"/>
        <path d="M349.7,208.3c0,.2-.2.3-.4.4h-1.8v-.2c-.1,0-.1-.1-.1-.2l.3-1.4a2.3,2.3,0,0,1-.5.7l-.8.6-1.1.5a2.5,2.5,0,0,1-1.2.2,3.2,3.2,0,0,1-1.4-.3,2.2,2.2,0,0,1-.9-.7,5.4,5.4,0,0,1-.5-1.1,6.2,6.2,0,0,1-.1-1.3,6.6,6.6,0,0,1,.1-1.4,9.4,9.4,0,0,1,.4-1.6,9.1,9.1,0,0,1,.7-1.4,4,4,0,0,1,1-1.2,3.8,3.8,0,0,1,1.3-.9,4.7,4.7,0,0,1,1.7-.3,4.1,4.1,0,0,1,1.6.3,6,6,0,0,1,1.2,1.1l.2-.9q0-.1.3-.3h1.8l.2.2h0Zm-1.3-6.3a3.8,3.8,0,0,0-.9-.9l-1-.2a1.1,1.1,0,0,0-.8.2,1.8,1.8,0,0,0-.7.5,2.2,2.2,0,0,0-.5.8,3.6,3.6,0,0,0-.4.9c-.1.3-.1.7-.2,1s-.1.6-.1.9.1.4.1.6.1.3.2.5l.3.3h.5a1.6,1.6,0,0,0,1-.2,3.2,3.2,0,0,0,.9-.8,3.9,3.9,0,0,0,.8-1,5.8,5.8,0,0,0,.5-1.4Z" fill="#e6e7e8"/>
        <path d="M356.8,206.7v.4c-.1.2-.1.4-.2.5a4.3,4.3,0,0,1-.1.5c-.1.1-.2.3-.3.3a.5.5,0,0,1-.5.3h-1.4l-.4-.2-.2-.3a.4.4,0,0,1-.1-.3v-.4l.2-.5c0-.2.1-.3.1-.5l.3-.4.5-.3h1.5l.4.2.2.3v.3m.2-2.3v.2h-2.2c-.1-.1-.1-.2,0-.2l1.6-9.3v-.2l.3-.2H359l.2.2v.2Z" fill="#e6e7e8"/>
        <path d="M380.8,181.2h.7l.8.2.8.3a.9.9,0,0,1,.6.4,1.6,1.6,0,0,1,.5.8,4.5,4.5,0,0,1,.1,1.3,3.1,3.1,0,0,1-.1,1,.6.6,0,0,1-.3.6,1,1,0,0,1-.5.4H382l-.8-.2-.8-.2-.6-.5c-.2-.1-.3-.4-.4-.7a4.4,4.4,0,0,1-.2-1.3,3.1,3.1,0,0,1,.2-1.1.6.6,0,0,1,.3-.6.5.5,0,0,1,.5-.3h.6" fill="#ea4924"/>
        <path d="M369.9,165.3h.8l.9.2.7.4a.5.5,0,0,1,.3.4.8.8,0,0,1-.2.5l-.4.6a5.6,5.6,0,0,0-.5.8,5.1,5.1,0,0,0-.2,1.3,2.9,2.9,0,0,0,.4,1.6,5.3,5.3,0,0,0,1,1.2,5.7,5.7,0,0,0,1.3.8l1.6.5a4,4,0,0,0,1.5.3h1.2a2.8,2.8,0,0,0,2-.6,2.1,2.1,0,0,0,.7-1.8,7.8,7.8,0,0,0-.2-1.6,11.7,11.7,0,0,0-.5-1.1l-.6-.8a1.4,1.4,0,0,1-.2-.6l.2-.3h1.1l.8.2.8.3a.9.9,0,0,1,.6.3l.5.7a11.7,11.7,0,0,1,.5,1.1l.3,1.4a7.7,7.7,0,0,1,.2,1.5A5.4,5.4,0,0,1,383,177a5.7,5.7,0,0,1-4.2,1.4l-2.2-.2a10.5,10.5,0,0,1-2.4-.6l-2.3-1.1a8.2,8.2,0,0,1-2-1.7,5.9,5.9,0,0,1-1.4-2.3,6.7,6.7,0,0,1-.5-3,4.9,4.9,0,0,1,.1-1.2,4.3,4.3,0,0,1,.2-1.2l.4-.9c.2-.3.3-.5.5-.6l.3-.3h.4" fill="#ea4924"/>
        <path d="M373.8,150.2l2.4.2,2.5.7a15.5,15.5,0,0,1,2.2,1.2,10.7,10.7,0,0,1,1.9,1.8,9,9,0,0,1,1.2,2.4,9.6,9.6,0,0,1,.5,3.1,7.9,7.9,0,0,1-.4,2.8,7,7,0,0,1-1.1,2.1,6.2,6.2,0,0,1-1.9,1.2,9,9,0,0,1-2.5.3,9.7,9.7,0,0,1-2.4-.2,10.3,10.3,0,0,1-2.5-.7,11.9,11.9,0,0,1-2.2-1.2,7.7,7.7,0,0,1-1.8-1.8,7,7,0,0,1-1.3-2.4,9.4,9.4,0,0,1-.5-3,11.9,11.9,0,0,1,.4-2.9,5.6,5.6,0,0,1,1.2-2,5.7,5.7,0,0,1,1.8-1.2,6.6,6.6,0,0,1,2.5-.4m.3,4.3h-1.2a1.9,1.9,0,0,0-.9.5,1.6,1.6,0,0,0-.6.8,3.7,3.7,0,0,0-.2,1.2,3.3,3.3,0,0,0,.3,1.5,4.7,4.7,0,0,0,.9,1.2l1.2.9,1.5.6,1.6.4h1.6l1.2-.2a1.9,1.9,0,0,0,.9-.4,1.6,1.6,0,0,0,.6-.8,5.1,5.1,0,0,0,.2-1.3,4,4,0,0,0-.3-1.5,3.1,3.1,0,0,0-.9-1.1,3.4,3.4,0,0,0-1.2-.9,4.4,4.4,0,0,0-1.6-.6l-1.6-.4h-1.5" fill="#ea4924"/>
        <path d="M383.5,126.8l.3.2a.5.5,0,0,1,.2.4,6.4,6.4,0,0,1,.2.7v2c-.1.2-.1.4-.2.6a.2.2,0,0,1-.2.2h-.3l-8.7-1.8h-1.5a2.4,2.4,0,0,0-1.3.2,1.3,1.3,0,0,0-.5,1.1,2.4,2.4,0,0,0,.5,1.3,3.6,3.6,0,0,0,1.1,1.4l1.7,1.1a9,9,0,0,0,2.1.8l6.6,1.3h.3a.5.5,0,0,1,.2.4,6.4,6.4,0,0,1,.2.7v2c-.1.2-.1.4-.2.6l-.2.3h-.3l-8.7-1.7-.8-.2h-.8a2.1,2.1,0,0,0-1.2.3,1.1,1.1,0,0,0-.5,1,3,3,0,0,0,.5,1.4,4.2,4.2,0,0,0,1.1,1.3,10.4,10.4,0,0,0,1.7,1.2l2.1.7,6.6,1.3c.2,0,.2.1.3.2l.2.3a6.4,6.4,0,0,1,.2.7v2c-.1.3-.1.5-.2.6s-.1.3-.2.3h-.3l-14.6-2.9h-.3a.5.5,0,0,1-.2-.4.7.7,0,0,1-.1-.5,2.8,2.8,0,0,1-.1-.9,1.9,1.9,0,0,1,.1-.8.7.7,0,0,1,.1-.5l.2-.3h.3l2.4.5a4.7,4.7,0,0,1-1.2-.9l-1.1-1.3a11.1,11.1,0,0,1-.7-1.6,3.9,3.9,0,0,1-.4-1.8,4.7,4.7,0,0,1,.3-1.7,3,3,0,0,1,1.8-1.8,2.8,2.8,0,0,1,1.3-.3l-1.2-1a6.9,6.9,0,0,1-1.1-1.3,7.7,7.7,0,0,1-.7-1.6,3.3,3.3,0,0,1-.4-1.7,5.9,5.9,0,0,1,.4-2,3.5,3.5,0,0,1,2.2-1.9,4.1,4.1,0,0,1,1.6-.2h1.2l1.2.2Z" fill="#ea4924"/>
        <path d="M7.8,25.1a9.7,9.7,0,0,1-3.6-.6,7.2,7.2,0,0,1-2.4-1.6A7.9,7.9,0,0,1,.4,20.6,7.5,7.5,0,0,1,0,18a8.1,8.1,0,0,1,.6-3.1,6.1,6.1,0,0,1,1.5-2.6,8,8,0,0,1,2.3-1.8,8.1,8.1,0,0,1,3.1-.6,5.9,5.9,0,0,1,2.7.5,5.2,5.2,0,0,1,2.1,1.4A6.4,6.4,0,0,1,13.7,14a8.7,8.7,0,0,1,.5,2.8V21h2.5a.9.9,0,0,1,.7.3,1.4,1.4,0,0,1,.2.7v2.1a1.4,1.4,0,0,1-.2.6.8.8,0,0,1-.7.4ZM2.5,5.7A2.1,2.1,0,0,1,4.6,3.6,2.1,2.1,0,0,1,6.7,5.7a2,2,0,0,1-.6,1.4,2,2,0,0,1-1.5.6,2,2,0,0,1-1.5-.6,2,2,0,0,1-.6-1.4M10.2,21V17.9a5.4,5.4,0,0,0-.8-3.1,2.5,2.5,0,0,0-2.2-1L6,14a2.5,2.5,0,0,0-1,.8,4.4,4.4,0,0,0-.8,1.1A6.1,6.1,0,0,0,4,17.4a4.3,4.3,0,0,0,.3,1.7,4.4,4.4,0,0,0,.8,1.1,3.4,3.4,0,0,0,1.2.6,3.6,3.6,0,0,0,1.4.2ZM8,5.7a2.1,2.1,0,0,1,2.1-2.1,2.1,2.1,0,0,1,2.1,2.1,2,2,0,0,1-.6,1.4,2,2,0,0,1-1.5.6,2,2,0,0,1-1.5-.6A2,2,0,0,1,8,5.7" fill="#e6e7e8"/>
        <path d="M16.5,25.1c-.4,0-.7-.1-.8-.3a1.4,1.4,0,0,1-.2-.6V22.1a1.4,1.4,0,0,1,.2-.7.8.8,0,0,1,.8-.4h3.3c.5,0,.9-.1,1.1-.5a3.9,3.9,0,0,0,.2-1.3V11.1h4v6.7a3.5,3.5,0,0,0,.7,2.3,2.7,2.7,0,0,0,2.4.9h1.2c.4,0,.7.1.8.3a1.4,1.4,0,0,1,.2.7v2.1a.9.9,0,0,1-.3.6c-.1.3-.3.4-.7.4H28.1a3.9,3.9,0,0,1-2.5-.8,4.3,4.3,0,0,1-1.4-1.6,4,4,0,0,1-1.7,1.7,4.1,4.1,0,0,1-2.5.7Zm1.8,4.4a2,2,0,0,1,.6-1.5,2.5,2.5,0,0,1,3,0,2,2,0,0,1,.6,1.5,1.7,1.7,0,0,1-.6,1.4,2.2,2.2,0,0,1-3,0,1.7,1.7,0,0,1-.6-1.4m5.4,0a2,2,0,0,1,.6-1.5,2.5,2.5,0,0,1,3,0,2,2,0,0,1,.6,1.5,1.7,1.7,0,0,1-.6,1.4,2.2,2.2,0,0,1-3,0,1.7,1.7,0,0,1-.6-1.4" fill="#e6e7e8"/>
        <path d="M29.2,25.1a.8.8,0,0,1-.7-.3.7.7,0,0,1-.2-.6V22.1a.8.8,0,0,1,.2-.7.7.7,0,0,1,.7-.4H34V11.1h4v14Zm4.1,4.4a2,2,0,0,1,.6-1.5,2.5,2.5,0,0,1,3,0,2,2,0,0,1,.6,1.5,1.7,1.7,0,0,1-.6,1.4,2.2,2.2,0,0,1-3,0,1.7,1.7,0,0,1-.6-1.4" fill="#e6e7e8"/>
        <path d="M53.1,25.1a4.1,4.1,0,0,1-1.9-.5,4.5,4.5,0,0,1-1.3-1v.9a13.6,13.6,0,0,1-.4,3,5.8,5.8,0,0,1-1.3,2.3,5.4,5.4,0,0,1-2.1,1.6,6.1,6.1,0,0,1-2.8.6H42.1l-1-.2h-1l.5-4,.9.2h1.8a2.4,2.4,0,0,0,2.1-1,7.2,7.2,0,0,0,.5-2.9V11.1h4v6.7a4.1,4.1,0,0,0,.6,2.3A3,3,0,0,0,53,21h1.2c.4,0,.7.1.8.3a1.4,1.4,0,0,1,.2.7v2.1a1.4,1.4,0,0,1-.2.6.8.8,0,0,1-.8.4Z" fill="#e6e7e8"/>
        <path d="M58.6,21a6.2,6.2,0,0,1-1.5-2,6.4,6.4,0,0,1-.6-2.8,6.9,6.9,0,0,1,.4-2.5,5.7,5.7,0,0,1,1.3-2.1,8.2,8.2,0,0,1,2.4-1.5A9,9,0,0,1,64,9.5h1.8l2.1.3-.5,4-1.5-.2H64.5a4.5,4.5,0,0,0-3,.9,3.1,3.1,0,0,0-1,2.3,3.5,3.5,0,0,0,.5,1.8,3.7,3.7,0,0,0,1.2,1.3,4.8,4.8,0,0,0,1.8.8l2.1.3h3.1v4.1H54c-.4,0-.6-.1-.7-.3a.7.7,0,0,1-.2-.6V22.1a.8.8,0,0,1,.2-.7A.7.7,0,0,1,54,21Z" fill="#e6e7e8"/>
        <path d="M121,25.1a4.4,4.4,0,0,1-2.2-.7,6.1,6.1,0,0,1-1.6-1.6,4.2,4.2,0,0,1-1.8,1.7,5.4,5.4,0,0,1-2.5.6h-1a4.8,4.8,0,0,1-2.4-.7,5.2,5.2,0,0,1-1.4-1.6,4,4,0,0,1-1.7,1.7,5.5,5.5,0,0,1-2.6.6h-1.1a3.7,3.7,0,0,1-3.1-1.3,7.9,7.9,0,0,1-1,3.5,9.5,9.5,0,0,1-2,2.8,10.3,10.3,0,0,1-3.1,1.7,9.4,9.4,0,0,1-3.9.7,11.4,11.4,0,0,1-4.8-.9,6.8,6.8,0,0,1-3-2.1,7.2,7.2,0,0,1-1.7-2.9,12.2,12.2,0,0,1-.4-3.2,10.6,10.6,0,0,1,.5-3.5,14.1,14.1,0,0,1,1.7-3.2l3.4,2A17.1,17.1,0,0,0,84.1,21a9.9,9.9,0,0,0-.3,2.4A10,10,0,0,0,84,25a3.9,3.9,0,0,0,1,1.6,4.2,4.2,0,0,0,1.8,1.3,8.5,8.5,0,0,0,3,.5,7.6,7.6,0,0,0,2.1-.3,3.9,3.9,0,0,0,1.9-1,5.1,5.1,0,0,0,1.4-1.8,6.2,6.2,0,0,0,.5-2.5V14.4h4v3.4a3.2,3.2,0,0,0,.7,2.3,2.6,2.6,0,0,0,2.3.9h.9c.6,0,.9-.1,1.1-.5a2.4,2.4,0,0,0,.2-1.3V13h4v4.8a4.2,4.2,0,0,0,.7,2.3,2.9,2.9,0,0,0,2.5.9h.7a1,1,0,0,0,.9-.4,2.3,2.3,0,0,0,.4-1.4V11.1H118v6.6a3.7,3.7,0,0,0,.8,2.6,2.9,2.9,0,0,0,2.2.7h1.4c.4,0,.6.1.7.3a1.4,1.4,0,0,1,.2.7v2.1a1.4,1.4,0,0,1-.2.6.8.8,0,0,1-.7.4Z" fill="#e6e7e8"/>
        <path d="M122.1,25.1a.8.8,0,0,1-.7-.3,1.4,1.4,0,0,1-.2-.6V22.1a1.4,1.4,0,0,1,.2-.7.8.8,0,0,1,.7-.4h4.8V11.1h4v14Zm1.8-19.4a2.1,2.1,0,1,1,4.2,0,2,2,0,0,1-.6,1.4,2.2,2.2,0,0,1-3,0,2,2,0,0,1-.6-1.4m5.5,0a2.1,2.1,0,1,1,4.2,0,2,2,0,0,1-.6,1.4,2.2,2.2,0,0,1-3,0,2,2,0,0,1-.6-1.4" fill="#e6e7e8"/>
        <path d="M136.2,0h4V21h2.4a.8.8,0,0,1,.7.3.8.8,0,0,1,.2.7v2.1a.7.7,0,0,1-.2.6.8.8,0,0,1-.7.4h-6.4Z" fill="#e6e7e8"/>
        <path d="M142.4,25.1c-.4,0-.6-.1-.7-.3a.9.9,0,0,1-.3-.6V22.1a.9.9,0,0,1,.3-.7.7.7,0,0,1,.7-.4h4.8V11.1h3.9v14Zm4.7-19.4a2.1,2.1,0,1,1,4.2,0,2,2,0,0,1-.6,1.4,2.2,2.2,0,0,1-3,0,2,2,0,0,1-.6-1.4" fill="#e6e7e8"/>
        <path d="M318.2,78.2c1.3,4.7-.9,7.8-4.6,10.2a32,32,0,0,1-13.9,5c-2.2.2-4.6.3-6-2s-.1-4.1,1.1-5.8a30.4,30.4,0,0,1,13-10.5c3.7-1.6,7.1-1.2,9.8,2.1l.6,1" fill="#ba2027"/>
        <path d="M345.5,48.6c-3.5-3.2-3.3-7-1.4-10.8A29.9,29.9,0,0,1,354,26c1.8-1.2,3.8-2.5,6-1.1s2.1,3.5,1.9,5.6a29.9,29.9,0,0,1-5.8,15.2c-2.9,4-5.6,4.7-10.6,2.9h0" fill="#ea4924"/>
        <path d="M353.9,76.9c3.8-4,7.9-3.4,12.2-1a31.6,31.6,0,0,1,9.9,8.3,17.5,17.5,0,0,1,2,3.5c1.1,2.7,0,4.7-2.8,5.2a15.1,15.1,0,0,1-5.2-.1,29.5,29.5,0,0,1-12.7-5.2c-3.9-2.8-4.8-5.4-3.7-9.8Z" fill="#ba2027"/>
        <path d="M353.5,55.8c-1.4-3.6-.2-6.6,2.7-8.8a29.2,29.2,0,0,1,16.3-6.4h2.3c3,.6,4.2,2.7,3,5.4a21.9,21.9,0,0,1-3.1,4.8A29.4,29.4,0,0,1,363.4,59c-3.5,1.3-6.7,1-9.3-2l-.6-1.2" fill="#ba2027"/>
        <path d="M356.6,65.9c1-4.1,4-5.9,7.9-6.2A30.1,30.1,0,0,1,379.6,62a11.5,11.5,0,0,1,3.5,2.2c1.8,1.6,1.9,3.7.1,5.2a16.9,16.9,0,0,1-5.4,3,29,29,0,0,1-14.6,1.4c-4.4-.8-6.6-3.5-6.5-7.9Z" fill="#ea4924"/>
        <path d="M346,85.1c4.9-1.7,7.7-.8,10.7,3.4a31.8,31.8,0,0,1,5.5,15.2,12.3,12.3,0,0,1-.2,2.7c-.5,2.4-2.3,3.6-4.7,2.9a11.2,11.2,0,0,1-3.3-1.6,29.8,29.8,0,0,1-9.9-12.3c-2-4.4-1.4-7,2-10.3Z" fill="#ea4924"/>
        <path d="M328.2,34.1A30.9,30.9,0,0,1,331,22.5c.9-2,2-4.1,4.5-4.1s3.8,2.1,4.7,4.1a29.7,29.7,0,0,1,2.4,16.9c-.7,4.1-3.2,6.5-6.8,6.6s-6.6-2.5-7.3-7c-.2-1.6-.2-3.2-.3-4.9" fill="#ba2027"/>
        <path d="M303.9,59.6a58.6,58.6,0,0,1,5.8,1,6.8,6.8,0,0,1,0,13.1c-4.2,1.3-8.5.9-12.6-.1a40.8,40.8,0,0,1-6.7-2.3c-1.7-.8-3.3-2-3.3-4.2s1.6-3.3,3.3-4.1c4.2-2.3,8.7-3,13.5-3.4" fill="#ea4924"/>
        <path d="M325.7,85.2c3.7,3,3.7,6.4,2.1,10.1a29.9,29.9,0,0,1-10.2,12.6,10.2,10.2,0,0,1-3.7,1.6,3.1,3.1,0,0,1-4-2.9,13.6,13.6,0,0,1-.1-4.5,30.7,30.7,0,0,1,5.9-14.3c2.4-3,5.5-4.3,9.3-2.9l.7.3" fill="#ea4924"/>
        <path d="M317.2,57.6c-4,3.6-8.1,2.8-12,.3a110.2,110.2,0,0,1-9.2-7.4,11.3,11.3,0,0,1-1.5-2.1c-1-1.7-2-3.5-1-5.5s3.3-2.1,5.3-2a28.4,28.4,0,0,1,16,6c3.9,3,4.3,5.4,2.3,10.8Z" fill="#ba2027"/>
        <path d="M343.3,97.6c-.3,5.5-.8,10.1-3,14.2-.9,1.9-2,3.8-4.4,3.8s-3.5-1.9-4.4-3.7a28.5,28.5,0,0,1-2.6-17c.5-4.1,3-6.6,6.4-6.8a6.3,6.3,0,0,1,7,4.4,37.2,37.2,0,0,1,1,5.1" fill="#ba2027"/>
        <path d="M325.4,49c-3.7,1.5-7,.9-9.6-2.3a29,29,0,0,1-6.4-16.6,8.6,8.6,0,0,1,0-1.6c.3-3.4,2.7-4.9,5.8-3.4a14.9,14.9,0,0,1,4.6,3.1,55.7,55.7,0,0,1,6.5,8.2c3.2,5.1,2.9,8.2-.9,12.7Z" fill="#ea4924"/>
      </g>
    </g>
  </g>
</svg>
